<?xml version="1.0" encoding="UTF-8" standalone="no"?>
<svg
   xmlns:dc="http://purl.org/dc/elements/1.1/"
   xmlns:cc="http://creativecommons.org/ns#"
   xmlns:rdf="http://www.w3.org/1999/02/22-rdf-syntax-ns#"
   xmlns:svg="http://www.w3.org/2000/svg"
   xmlns="http://www.w3.org/2000/svg"
   id="svg32"
   version="1.1"
   viewBox="0 0 1000 1000">
  <metadata
     id="metadata38">
    <rdf:RDF>
      <cc:Work
         rdf:about="">
        <dc:format>image/svg+xml</dc:format>
        <dc:type
           rdf:resource="http://purl.org/dc/dcmitype/StillImage" />
        <dc:title></dc:title>
      </cc:Work>
    </rdf:RDF>
  </metadata>
  <defs
     id="defs36" />
  <g
     id="g54"
     style="fill:#808080">
    <g
       id="g22"
       style="fill:#808080">
      <g
         id="g20"
         style="fill:#808080">
        <g
           id="g18"
           style="fill:#808080">
          <g
             id="g16"
             style="fill:#808080">
            <path
               d="M500,10C229.4,10,10,229.4,10,500c0,270.7,219.4,490,490,490c270.7,0,490-219.3,490-490C990,229.4,770.7,10,500,10z M500,924.7C265.8,924.7,75.3,734.2,75.3,500S265.8,75.3,500,75.3S924.7,265.8,924.7,500S734.2,924.7,500,924.7z"
               id="path12"
               style="fill:#808080" />
            <path
               d="M604.5,264.9c-12.7-12.7-33.5-12.7-46.2,0L346.5,476.8c-6.4,6.4-9.5,14.8-9.5,23.2c0,8.4,3.1,16.8,9.5,23.2l211.9,211.9c12.7,12.7,33.5,12.7,46.2,0c12.7-12.7,12.7-33.5,0-46.2L415.7,500l188.9-188.9C617.3,298.4,617.3,277.7,604.5,264.9z"
               id="path14"
               style="fill:#808080" />
          </g>
        </g>
      </g>
    </g>
    <g
       id="g24"
       style="fill:#808080" />
    <g
       id="g26"
       style="fill:#808080" />
    <g
       id="g28"
       style="fill:#808080" />
    <g
       id="g30"
       style="fill:#808080" />
    <g
       id="g32"
       style="fill:#808080" />
    <g
       id="g34"
       style="fill:#808080" />
    <g
       id="g36"
       style="fill:#808080" />
    <g
       id="g38"
       style="fill:#808080" />
    <g
       id="g40"
       style="fill:#808080" />
    <g
       id="g42"
       style="fill:#808080" />
    <g
       id="g44"
       style="fill:#808080" />
    <g
       id="g46"
       style="fill:#808080" />
    <g
       id="g48"
       style="fill:#808080" />
    <g
       id="g50"
       style="fill:#808080" />
    <g
       id="g52"
       style="fill:#808080" />
  </g>
</svg>
